<svg xmlns="http://www.w3.org/2000/svg" width="71" height="70" viewBox="0 0 71 70">
  <g fill="none" fill-rule="evenodd" transform="translate(.027)">
    <path fill="#DABA53" d="M27.7787545,8.69613038 C26.6141507,10.5780626 25.6816237,12.4895319 25.1119806,14.3756837 C27.1669155,15.1858429 28.8674059,16.3420075 30.2007928,17.8399581 C30.5932137,15.8483168 31.491984,13.9790433 32.8802255,12.2405767 C31.4497882,10.9071898 29.7071021,9.73414681 27.7787545,8.69613038 M47.619215,16.2154202 C47.9441226,18.4138208 47.779559,20.4814145 47.1170851,22.401323 C49.0201152,21.7810449 51.0708306,21.6375792 53.252353,21.9667064 C53.4548927,21.0932535 53.5983584,20.1522874 53.6869696,19.143808 C53.7840199,18.0635958 53.8177765,16.9158703 53.7840199,15.7006315 C51.6067171,15.6373378 49.513806,15.7808035 47.619215,16.2154202 M57.1554635,36.5959868 C55.4296557,37.9589108 53.5688214,38.849242 51.6151563,39.2543216 C53.121546,40.5919281 54.2903694,42.3092968 55.1089677,44.3768905 C56.8854105,43.8367844 58.7631231,42.9548923 60.7336665,41.735434 C59.6281368,39.6762795 58.4382156,37.9589108 57.1554635,36.5959868 M42.3616195,54.1747529 C41.1590395,53.482742 40.1210231,52.6388262 39.2391311,51.6472251 C38.8467102,53.6093293 37.9648182,55.4532854 36.6018942,57.1748736 C38.0323315,58.5124801 39.7792372,59.6897427 41.7118044,60.7319787 C42.3489608,59.6981818 42.8932865,58.6897025 43.349001,57.702321 C43.7583002,56.820429 44.0958665,55.9638544 44.3574804,55.1325974 C43.6485911,54.8541051 42.9861172,54.5334171 42.3616195,54.1747529 M21.8713439,53.2253476 C21.5464363,51.0311666 21.7109999,48.972012 22.3692542,47.0563231 C21.1033805,47.478281 19.7699935,47.68926 18.3690933,47.68926 C17.6559844,47.68926 16.9259973,47.6344055 16.1791318,47.5246964 C15.736076,49.4361657 15.5841712,51.5501748 15.6516844,53.752795 C17.8500851,53.8203083 19.9598746,53.672623 21.8713439,53.2253476 M12.2253863,32.815244 C13.9554137,31.4396612 15.8120284,30.5535496 17.7825718,30.1569092 C16.2804017,28.8277418 15.124237,27.1314711 14.322517,25.0765361 C12.5460743,25.6208618 10.6683616,26.5069734 8.69781821,27.7264317 C9.78646959,29.7602688 10.9637321,31.4565395 12.2253863,32.815244"/>
    <path fill="#AB051F" d="M51.5695848,30.2413008 C53.5401282,30.6463804 55.4051822,31.5535899 57.1436487,32.9418314 C57.7554877,32.283577 58.3504483,31.5409311 58.9327502,30.7138936 C59.5572479,29.8235625 60.1606477,28.8446201 60.73873,27.7728471 C58.7597475,26.5491692 56.8778152,25.6630576 55.0929333,25.1229515 C54.2658958,27.1905452 53.0886333,28.9036942 51.5695848,30.2413008 M47.0926115,47.1153972 C47.7171092,49.022647 47.8690141,51.0860211 47.5483261,53.2759826 C49.3669646,53.6979405 51.4514366,53.8709432 53.7806442,53.7992104 C53.8186205,52.5713129 53.7848638,51.4067091 53.6878135,50.3096186 C53.5992024,49.3348958 53.4641758,48.4276863 53.2742948,47.5795509 C52.5274293,47.68926 51.789003,47.7441145 51.0674549,47.7441145 C49.6749939,47.7441145 48.3500461,47.5373551 47.0926115,47.1153972 M30.2016368,51.6050293 C28.8724694,53.1240778 27.1761986,54.2929011 25.1212636,55.1030603 C25.6866872,56.9681142 26.6065554,58.8584856 27.7542809,60.71932 C29.6826285,59.6813035 31.4210951,58.504041 32.8473128,57.170654 C31.4759496,55.4406266 30.589838,53.5797923 30.2016368,51.6050293 M17.800294,39.2121258 C16.5133224,38.9462923 15.2685466,38.4652603 14.0744058,37.7774689 C13.4541277,37.4188047 12.8507279,37.0052859 12.2599868,36.5369127 C10.9139411,37.9715695 9.7282394,39.731134 8.68600339,41.6721403 C10.6481076,42.8873791 12.5173811,43.7692711 14.2896043,44.3135968 C15.1039831,42.2502226 16.277026,40.5455127 17.800294,39.2121258 M22.3490002,22.3549076 C21.699185,20.4349992 21.538841,18.3674055 21.8764074,16.1690048 C20.0704276,15.7512665 18.0070534,15.5782637 15.6989437,15.645777 C15.6314304,17.861056 15.7791157,19.9835042 16.2263911,21.9034127 C18.4079134,21.5785051 20.4544092,21.7261904 22.3490002,22.3549076 M39.2863904,17.7893231 C40.6197773,16.287153 42.3160481,15.1309884 44.3625439,14.3292684 C43.7929007,12.4642144 42.8730325,10.5780626 41.725307,8.71722827 C39.8053986,9.74680555 38.066932,10.9198485 36.6407143,12.2447963 C38.0078579,13.9663846 38.8939695,15.8187797 39.2863904,17.7893231"/>
    <path fill="#5CBCAA" d="M15.8782758,12.9650785 C18.3171925,12.9186631 20.5198127,13.1212029 22.481917,13.5684783 C23.0810972,11.6316915 24.0305025,9.60207399 25.3216936,7.48806491 C22.7899462,6.34877858 20.0598786,5.41203204 17.3846655,4.64406866 C16.7053133,7.35303838 16.156768,10.1970346 15.8782758,12.9650785 M44.1832118,7.5091628 C45.4617442,9.60629357 46.3984908,11.6148132 46.997671,13.5389412 C48.9555557,13.100105 51.1623955,12.9102239 53.6055317,12.9735176 C53.352357,10.4375506 52.8502271,7.66106765 52.099142,4.66938613 C49.4281485,5.43734951 46.7107396,6.37409605 44.1832118,7.5091628 M62.9983146,29.2948492 C62.4117931,30.3750614 61.7957346,31.3666625 61.1543586,32.2780916 C60.5045434,33.2021794 59.8251912,34.037656 59.1205215,34.7887411 C60.5003238,36.2698133 61.7788563,38.0884519 62.9687775,40.2404372 C65.0363713,38.7509258 67.2010153,36.9196285 69.4416117,34.7549845 C67.213674,32.5987796 65.0616887,30.780141 62.9983146,29.2948492 M53.6013121,56.5153534 C51.1412976,56.5744275 48.9175794,56.3761073 46.9428165,55.9246123 C46.6474459,56.8782372 46.276123,57.8529599 45.8161889,58.844561 C45.3478156,59.8530404 44.7950507,60.8868373 44.1578943,61.9332928 C46.6938613,63.0767988 49.4239289,64.0177649 52.099142,64.7857283 C52.8502271,61.8067055 53.3439178,59.0471008 53.6013121,56.5153534 M25.3005957,61.9290733 C24.0262829,59.8361621 23.0895363,57.8276425 22.4903561,55.907734 C20.5198127,56.3550094 18.3003142,56.54911 15.83608,56.4858163 C16.1145722,59.2496406 16.6631175,62.0809781 17.3382501,64.7857283 C20.026122,64.0135453 22.7604092,63.0725792 25.3005957,61.9290733 M6.40954051,40.1476064 C7.59102264,37.9787428 8.87377465,36.1516651 10.2451378,34.6663733 C8.87799423,33.1895206 7.60790095,31.3793213 6.43485799,29.2442143 C4.37570343,30.7295061 2.22793772,32.5481446 2.06632097e-14,34.7043495 C2.21949856,36.8478956 4.35882512,38.6665342 6.40954051,40.1476064"/>
    <path fill="#CF663D" d="M56.5022727,15.8824954 C56.5275902,17.1103929 56.4938335,18.2792163 56.3925637,19.3889655 C56.2912938,20.5113736 56.1225106,21.5747075 55.8862142,22.5747477 C57.8187814,23.1697083 59.8315205,24.0980157 61.9286513,25.3638894 C62.9835461,23.0304622 63.9456101,20.3679079 64.797965,17.3846655 C62.0932149,16.7095329 59.2618774,16.1609876 56.5022727,15.8824954 M29.3028664,6.42219925 C31.4590713,7.59946179 33.2819294,8.86955507 34.7630017,10.2366987 C36.2398543,8.87799423 38.0542733,7.61212053 40.202039,6.44329715 C38.5775011,4.19004196 36.6786905,2.00851961 34.7419038,0 C32.8093366,2.00008045 30.9231848,4.17316364 29.3028664,6.42219925 M7.51296042,25.3090349 C9.60587161,24.0473808 11.6186108,23.1148538 13.5469584,22.5241127 C13.099683,20.5409106 12.9055824,18.3087533 12.9646565,15.8318604 C10.4413483,16.0892548 7.66486527,16.5913847 4.65630544,17.3424697 C5.51287997,20.3299317 6.46650483,22.992486 7.51296042,25.3090349 M12.9182411,53.5675555 C12.859167,51.1033214 13.0532677,48.8796032 13.500543,46.9090598 C11.576415,46.3140992 9.5678954,45.3815722 7.48342337,44.111479 C6.33991746,46.6474459 5.39895134,49.3775136 4.63098796,52.0653854 C7.33151853,52.7362984 10.1586365,53.2890633 12.9182411,53.5675555 M40.1935998,63.0067537 C38.0331754,61.8294912 36.2060977,60.5509588 34.7250254,59.1838152 C33.2481728,60.5467392 31.4295342,61.821052 29.2775489,62.994095 C30.9020869,65.2557894 32.8008974,67.4373117 34.7376842,69.4458313 C36.8854499,67.2305523 38.7040885,65.078567 40.1935998,63.0067537 M61.9328709,44.1789922 C59.8441793,45.4490855 57.8356597,46.3773929 55.9073121,46.9723535 C56.1309498,47.9428567 56.2955133,48.972434 56.3925637,50.0653049 C56.4938335,51.1834934 56.5318098,52.3691951 56.4980531,53.6139709 C59.0171418,53.3565766 61.7767465,52.8544467 64.7726476,52.1075812 C63.9202926,49.1369975 62.9708873,46.4913215 61.9328709,44.1789922"/>
  </g>
</svg>
