<?xml version="1.0" encoding="utf-8"?>
<!-- Generator: Adobe Illustrator 24.0.1, SVG Export Plug-In . SVG Version: 6.00 Build 0)  -->
<svg version="1.1" id="Layer_1" xmlns="http://www.w3.org/2000/svg" xmlns:xlink="http://www.w3.org/1999/xlink" x="0px" y="0px"
	 viewBox="0 0 365.1 606.7" style="enable-background:new 0 0 365.1 606.7;" xml:space="preserve">
<style type="text/css">
	.st0{fill:#3777BB;}
	.st1{fill:#002E41;}
	.st2{fill:#BBD652;}
	.st3{fill:none;stroke:#A6A8AB;stroke-width:4.0063;stroke-miterlimit:10;}
</style>
<g>
	<g>
		<path class="st0" d="M52.4,468.1H22L14,484.5H2.5L37.7,413l34,71.5H59.9L52.4,468.1z M48.1,458.6l-10.6-22.9l-11.1,22.9H48.1z"/>
		<path class="st0" d="M91.3,417.2v57.7h20.9v9.5H80.6v-67.3H91.3z"/>
		<path class="st0" d="M168.2,468.1h-30.5l-7.9,16.3h-11.6l35.2-71.5l34,71.5h-11.8L168.2,468.1z M163.8,458.6l-10.6-22.9
			l-11.1,22.9H163.8z"/>
		<path class="st0" d="M193.8,484.5l15-72.3l24.4,52.3l25.3-52.3l13.5,72.3h-11l-6.9-40.6l-21.1,43.7l-20.5-43.7l-7.7,40.6H193.8z"
			/>
		<path class="st0" d="M297.8,417.2v67.3h-10.7v-67.3H297.8z"/>
		<path class="st0" d="M339.1,455.8l22,28.7h-13.1l-20.3-27.5h-1.9v27.5h-10.7v-67.3h12.6c9.4,0,16.2,1.7,20.4,5
			c4.6,3.7,6.9,8.6,6.9,14.7c0,4.8-1.4,8.9-4.3,12.3S343.8,454.8,339.1,455.8z M325.7,448.1h3.4c10.2,0,15.3-3.7,15.3-11
			c0-6.9-4.9-10.3-14.8-10.3h-3.8V448.1z"/>
		<path class="st1" d="M34.7,502.7H14.3v11.5h19.8v6.8H14.3v16.1h20.4v6.8H6.6v-48h28.1V502.7z"/>
		<path class="st1" d="M43.3,513.6h7.4v2.8c2.6-2.4,5.5-3.6,8.8-3.6c3.7,0,6.6,1.1,8.7,3.3c1.8,1.9,2.7,5,2.7,9.2v18.6h-7.4V527
			c0-3-0.4-5-1.3-6.2c-0.9-1.2-2.4-1.7-4.7-1.7c-2.5,0-4.2,0.8-5.2,2.3c-1,1.5-1.5,4.2-1.5,7.9v14.6h-7.4V513.6z"/>
		<path class="st1" d="M111.3,543.2c0,1.4,0,2.7-0.1,3.8s-0.2,2-0.4,2.9c-0.5,2.3-1.6,4.2-3.1,5.9c-2.9,3.2-6.9,4.7-12,4.7
			c-4.3,0-7.8-1.1-10.6-3.3c-2.9-2.2-4.5-5.4-4.9-9.3h7.4c0.3,1.5,0.8,2.6,1.4,3.5c1.5,1.9,3.8,2.8,6.7,2.8c5.4,0,8.1-3.1,8.1-9.4
			v-4.2c-2.9,2.8-6.3,4.3-10.2,4.3c-4.4,0-7.9-1.5-10.7-4.5c-2.8-3-4.2-6.8-4.2-11.4c0-4.4,1.3-8.2,3.9-11.3
			c2.8-3.3,6.5-4.9,11.1-4.9c4,0,7.4,1.4,10.1,4.3v-3.4h7.4V543.2z M104.2,528.9c0-2.9-0.8-5.3-2.5-7.1c-1.7-1.8-3.9-2.7-6.5-2.7
			c-2.8,0-5,1-6.7,3c-1.5,1.8-2.2,4-2.2,6.8c0,2.8,0.7,5,2.2,6.8c1.6,1.9,3.8,2.9,6.7,2.9s5.1-1,6.7-2.9
			C103.5,533.9,104.2,531.6,104.2,528.9z"/>
		<path class="st1" d="M119.6,501c0-1.2,0.5-2.3,1.4-3.2c0.9-0.9,2.1-1.3,3.4-1.3c1.3,0,2.5,0.4,3.4,1.3c0.9,0.9,1.4,1.9,1.4,3.2
			c0,1.3-0.5,2.3-1.4,3.2c-0.9,0.9-2.1,1.3-3.4,1.3c-1.3,0-2.5-0.4-3.4-1.3C120.1,503.4,119.6,502.3,119.6,501z M128.1,513.6v30.3
			h-7.4v-30.3H128.1z"/>
		<path class="st1" d="M137.5,513.6h7.4v2.8c2.6-2.4,5.5-3.6,8.8-3.6c3.7,0,6.6,1.1,8.7,3.3c1.8,1.9,2.7,5,2.7,9.2v18.6h-7.4V527
			c0-3-0.4-5-1.3-6.2c-0.9-1.2-2.4-1.7-4.7-1.7c-2.5,0-4.2,0.8-5.2,2.3c-1,1.5-1.5,4.2-1.5,7.9v14.6h-7.4V513.6z"/>
		<path class="st1" d="M203.7,530.4h-23c0.2,2.5,1.1,4.5,2.6,5.9c1.5,1.5,3.5,2.2,5.8,2.2c1.8,0,3.4-0.4,4.6-1.2
			c1.2-0.8,2.5-2.4,4.1-4.6l6.3,3.3c-1,1.6-2,2.9-3.1,4c-1.1,1.1-2.2,2-3.5,2.7c-1.2,0.7-2.6,1.2-4,1.6c-1.4,0.3-3,0.5-4.6,0.5
			c-4.8,0-8.6-1.5-11.5-4.4c-2.9-2.9-4.3-6.8-4.3-11.6c0-4.8,1.4-8.7,4.2-11.6c2.8-2.9,6.6-4.4,11.3-4.4c4.7,0,8.5,1.4,11.2,4.3
			c2.7,2.8,4.1,6.7,4.1,11.7L203.7,530.4z M196.1,524.7c-1-3.7-3.5-5.6-7.5-5.6c-0.9,0-1.7,0.1-2.5,0.4c-0.8,0.3-1.5,0.6-2.2,1.1
			s-1.2,1.1-1.7,1.8s-0.8,1.5-1.1,2.3H196.1z"/>
		<path class="st1" d="M241,530.4h-23c0.2,2.5,1.1,4.5,2.6,5.9c1.5,1.5,3.5,2.2,5.8,2.2c1.8,0,3.4-0.4,4.6-1.2
			c1.2-0.8,2.5-2.4,4.1-4.6l6.3,3.3c-1,1.6-2,2.9-3.1,4c-1.1,1.1-2.2,2-3.5,2.7c-1.2,0.7-2.6,1.2-4,1.6c-1.4,0.3-3,0.5-4.6,0.5
			c-4.8,0-8.6-1.5-11.5-4.4c-2.9-2.9-4.3-6.8-4.3-11.6c0-4.8,1.4-8.7,4.2-11.6c2.8-2.9,6.6-4.4,11.3-4.4c4.7,0,8.5,1.4,11.2,4.3
			c2.7,2.8,4.1,6.7,4.1,11.7L241,530.4z M233.4,524.7c-1-3.7-3.5-5.6-7.5-5.6c-0.9,0-1.7,0.1-2.5,0.4c-0.8,0.3-1.5,0.6-2.2,1.1
			s-1.2,1.1-1.7,1.8s-0.8,1.5-1.1,2.3H233.4z"/>
		<path class="st1" d="M249.1,513.6h7.4v2.7c1.4-1.3,2.6-2.3,3.6-2.8c1.1-0.5,2.3-0.8,3.8-0.8c2,0,4,0.6,6.1,1.8l-3.4,6.4
			c-1.4-1-2.8-1.4-4.1-1.4c-4,0-6.1,2.9-6.1,8.6v15.7h-7.4V513.6z"/>
		<path class="st1" d="M274.2,501c0-1.2,0.5-2.3,1.4-3.2c0.9-0.9,2.1-1.3,3.4-1.3c1.3,0,2.5,0.4,3.4,1.3c0.9,0.9,1.4,1.9,1.4,3.2
			c0,1.3-0.5,2.3-1.4,3.2c-0.9,0.9-2.1,1.3-3.4,1.3c-1.3,0-2.5-0.4-3.4-1.3C274.7,503.4,274.2,502.3,274.2,501z M282.7,513.6v30.3
			h-7.4v-30.3H282.7z"/>
		<path class="st1" d="M292.1,513.6h7.4v2.8c2.6-2.4,5.5-3.6,8.8-3.6c3.7,0,6.6,1.1,8.7,3.3c1.8,1.9,2.7,5,2.7,9.2v18.6h-7.4V527
			c0-3-0.4-5-1.3-6.2c-0.9-1.2-2.4-1.7-4.7-1.7c-2.5,0-4.2,0.8-5.2,2.3c-1,1.5-1.5,4.2-1.5,7.9v14.6h-7.4V513.6z"/>
		<path class="st1" d="M360.1,543.2c0,1.4,0,2.7-0.1,3.8s-0.2,2-0.4,2.9c-0.5,2.3-1.6,4.2-3.1,5.9c-2.9,3.2-6.9,4.7-12,4.7
			c-4.3,0-7.8-1.1-10.6-3.3c-2.9-2.2-4.5-5.4-4.9-9.3h7.4c0.3,1.5,0.8,2.6,1.4,3.5c1.5,1.9,3.8,2.8,6.7,2.8c5.4,0,8.1-3.1,8.1-9.4
			v-4.2c-2.9,2.8-6.3,4.3-10.2,4.3c-4.4,0-7.9-1.5-10.7-4.5c-2.8-3-4.2-6.8-4.2-11.4c0-4.4,1.3-8.2,3.9-11.3
			c2.8-3.3,6.5-4.9,11.1-4.9c4,0,7.4,1.4,10.1,4.3v-3.4h7.4V543.2z M353,528.9c0-2.9-0.8-5.3-2.5-7.1c-1.7-1.8-3.9-2.7-6.5-2.7
			c-2.8,0-5,1-6.7,3c-1.5,1.8-2.2,4-2.2,6.8c0,2.8,0.7,5,2.2,6.8c1.6,1.9,3.8,2.9,6.7,2.9s5.1-1,6.7-2.9
			C352.3,533.9,353,531.6,353,528.9z"/>
		<path class="st1" d="M42.4,557.9v8.6c-4.4-3.5-9-5.3-13.8-5.3c-5.2,0-9.6,1.8-13.2,5.3c-3.6,3.5-5.4,7.8-5.4,12.9
			c0,5,1.8,9.3,5.4,12.8s8,5.2,13.2,5.2c2.7,0,5-0.4,6.9-1.2c1.1-0.4,2.1-1,3.3-1.7s2.3-1.6,3.6-2.6v8.8c-4.4,2.4-9,3.5-13.8,3.5
			c-7.3,0-13.5-2.4-18.6-7.2c-5.1-4.8-7.7-10.7-7.7-17.5c0-6.1,2.1-11.6,6.4-16.4c5.3-5.9,12.1-8.8,20.4-8.8
			C33.7,554.4,38.1,555.6,42.4,557.9z"/>
		<path class="st1" d="M50.9,588c0-4.4,1.7-8.1,5-11.2c3.3-3.1,7.4-4.6,12.1-4.6c4.8,0,8.8,1.5,12.2,4.6c3.3,3.1,4.9,6.9,4.9,11.4
			c0,4.5-1.7,8.3-5,11.4c-3.3,3-7.4,4.6-12.3,4.6c-4.8,0-8.8-1.6-12.1-4.7C52.5,596.6,50.9,592.7,50.9,588z M58.5,588.2
			c0,3,0.9,5.4,2.6,7.2c1.8,1.8,4.1,2.7,6.9,2.7c2.9,0,5.2-0.9,6.9-2.6s2.6-4.1,2.6-7.1c0-2.9-0.9-5.3-2.6-7.1
			c-1.8-1.8-4.1-2.7-6.9-2.7c-2.8,0-5.1,0.9-6.9,2.7C59.4,583,58.5,585.4,58.5,588.2z"/>
		<path class="st1" d="M94.8,573.1h7.4v2.8c2.6-2.4,5.5-3.6,8.8-3.6c3.7,0,6.6,1.1,8.7,3.3c1.8,1.9,2.7,5,2.7,9.2v18.6H115v-16.9
			c0-3-0.4-5-1.3-6.2c-0.9-1.2-2.4-1.7-4.7-1.7c-2.5,0-4.2,0.8-5.2,2.3c-1,1.5-1.5,4.2-1.5,7.9v14.6h-7.4V573.1z"/>
		<path class="st1" d="M152.2,578.3l-6.1,3.1c-1-1.8-2.2-2.8-3.6-2.8c-0.7,0-1.3,0.2-1.7,0.6c-0.5,0.4-0.7,1-0.7,1.6
			c0,1.2,1.4,2.3,4.3,3.4c3.9,1.6,6.6,3.1,7.9,4.4c1.4,1.3,2,3.2,2,5.4c0,2.9-1.1,5.4-3.4,7.3c-2.2,1.9-4.9,2.8-8,2.8
			c-5.4,0-9.2-2.5-11.4-7.4l6.3-2.8c0.9,1.5,1.5,2.4,2,2.8c0.9,0.8,2,1.2,3.2,1.2c2.5,0,3.8-1.1,3.8-3.2c0-1.2-1-2.4-2.9-3.5
			c-0.7-0.4-1.5-0.7-2.2-1s-1.5-0.7-2.3-1c-2.2-1-3.7-2-4.5-3c-1.1-1.3-1.7-2.9-1.7-4.9c0-2.6,1-4.8,2.9-6.5c2-1.7,4.3-2.6,7.1-2.6
			C147.2,572.3,150.2,574.3,152.2,578.3z"/>
		<path class="st1" d="M170.2,573.1v17.4c0,5,2.1,7.5,6.3,7.5c4.2,0,6.3-2.5,6.3-7.5v-17.4h7.4v17.5c0,2.4-0.3,4.5-1,6.3
			c-0.6,1.6-1.7,3-3.2,4.3c-2.5,2.1-5.7,3.1-9.5,3.1c-3.8,0-7-1-9.5-3.1c-1.5-1.3-2.6-2.7-3.3-4.3c-0.6-1.4-0.9-3.5-0.9-6.3v-17.5
			H170.2z"/>
		<path class="st1" d="M208.8,550.9v52.6h-7.4v-52.6H208.8z"/>
		<path class="st1" d="M227.6,579.6v23.8h-7.4v-23.8H217v-6.5h3.2V562h7.4v11.1h5.8v6.5H227.6z"/>
		<path class="st1" d="M264.5,573.1h7.4v30.3h-7.4v-3.2c-3.1,2.7-6.3,4-9.8,4c-4.4,0-8.1-1.5-11-4.5c-2.9-3.1-4.3-6.9-4.3-11.6
			c0-4.5,1.4-8.3,4.3-11.4c2.9-3,6.5-4.5,10.8-4.5c3.7,0,7.1,1.5,10,4.4V573.1z M246.9,588.2c0,2.9,0.8,5.3,2.5,7.1
			c1.7,1.8,3.8,2.8,6.4,2.8c2.7,0,5-0.9,6.7-2.7c1.7-1.8,2.5-4.2,2.5-7c0-2.8-0.8-5.2-2.5-7c-1.7-1.8-3.9-2.7-6.6-2.7
			c-2.5,0-4.7,0.9-6.4,2.7C247.7,583.2,246.9,585.5,246.9,588.2z"/>
		<path class="st1" d="M283.1,573.1h7.4v2.8c2.6-2.4,5.5-3.6,8.8-3.6c3.7,0,6.6,1.1,8.7,3.3c1.8,1.9,2.7,5,2.7,9.2v18.6h-7.4v-16.9
			c0-3-0.4-5-1.3-6.2c-0.9-1.2-2.4-1.7-4.7-1.7c-2.5,0-4.2,0.8-5.2,2.3c-1,1.5-1.5,4.2-1.5,7.9v14.6h-7.4V573.1z"/>
		<path class="st1" d="M329.5,579.6v23.8h-7.4v-23.8H319v-6.5h3.2V562h7.4v11.1h5.8v6.5H329.5z"/>
		<path class="st1" d="M360.8,578.3l-6.1,3.1c-1-1.8-2.2-2.8-3.6-2.8c-0.7,0-1.3,0.2-1.7,0.6c-0.5,0.4-0.7,1-0.7,1.6
			c0,1.2,1.4,2.3,4.3,3.4c3.9,1.6,6.6,3.1,7.9,4.4c1.4,1.3,2,3.2,2,5.4c0,2.9-1.1,5.4-3.4,7.3c-2.2,1.9-4.9,2.8-8,2.8
			c-5.4,0-9.2-2.5-11.4-7.4l6.3-2.8c0.9,1.5,1.5,2.4,2,2.8c0.9,0.8,2,1.2,3.2,1.2c2.5,0,3.8-1.1,3.8-3.2c0-1.2-1-2.4-2.9-3.5
			c-0.7-0.4-1.5-0.7-2.2-1s-1.5-0.7-2.3-1c-2.2-1-3.7-2-4.5-3c-1.1-1.3-1.7-2.9-1.7-4.9c0-2.6,1-4.8,2.9-6.5c2-1.7,4.3-2.6,7.1-2.6
			C355.7,572.3,358.8,574.3,360.8,578.3z"/>
	</g>
	<polygon class="st2" points="280.7,151.9 280.7,385.4 342.6,385.4 342.6,200 	"/>
	<polyline class="st3" points="270.1,369.3 167.8,369.3 167.8,2.4 	"/>
	<polyline class="st3" points="51.6,369.3 10.9,369.3 10.9,214.5 65.5,172.4 114.7,214.5 114.7,349.6 89.1,349.6 89.1,112.9 
		165.5,57.9 237.3,112.9 237.3,346 214.1,346 214.1,194.3 281.5,137.5 354.4,194.3 354.4,369.3 346.5,369.3 	"/>
	<polygon class="st2" points="64.5,189.2 64.5,377.1 139.6,377.1 139.6,245.3 	"/>
	<polygon class="st0" points="257,359.2 179.1,359.2 179.1,81.9 257,140 	"/>
</g>
</svg>
