<?xml version="1.0" encoding="UTF-8"?>
<svg width="245px" height="80px" viewBox="0 0 245 80" version="1.1" xmlns="http://www.w3.org/2000/svg" xmlns:xlink="http://www.w3.org/1999/xlink">
    <title>LOGO</title>
    <defs>
        <polygon id="path-1" points="0 0.354085926 89.3791881 0.354085926 89.3791881 20.9799822 0 20.9799822"></polygon>
    </defs>
    <g id="Al-Amir" stroke="none" stroke-width="1" fill="none" fill-rule="evenodd">
        <g id="AlAmir-2" transform="translate(-1263.000000, -7.000000)">
            <g id="HEADER" transform="translate(119.000000, 7.000000)">
                <g id="LOGO" transform="translate(1144.000000, 0.000000)">
                    <g id="Group-10" transform="translate(172.194453, 0.000000)">
                        <polygon id="Fill-1" fill="#A3C12F" points="56.1261867 79.6760889 68.9980089 79.6760889 68.9980089 41.1150222 56.1261867 31.1004444"></polygon>
                        <polyline id="Stroke-2" stroke="#A6A8AB" stroke-width="2.344" points="53.9131733 76.3164444 32.6289067 76.3164444 32.6289067 -1.42108547e-14"></polyline>
                        <polyline id="Stroke-5" stroke="#A6A8AB" stroke-width="2.344" points="8.45937778 76.3164444 -1.70530257e-13 76.3164444 0.000355555555 44.1148444 11.3639111 35.3664 21.5992889 44.1148444 21.5992889 72.2211556 16.2716444 72.2211556 16.2716444 22.9877333 32.1685333 11.5399111 47.104 22.9877333 47.104 71.4773333 42.2791111 71.4773333 42.2791111 39.9264 56.2958222 28.1070222 71.4606222 39.9264 71.4606222 76.3164444 69.8101333 76.3164444"></polyline>
                        <polygon id="Fill-8" fill="#A3C12F" points="11.1541689 38.8681956 11.1541689 77.9572622 26.7790578 77.9572622 26.7790578 50.5289956"></polygon>
                        <polygon id="Fill-9" fill="#3676BB" points="51.1881956 74.2320711 34.9883733 74.2320711 34.9883733 16.5314489 51.1881956 28.6310044"></polygon>
                    </g>
                    <g id="Group-18" transform="translate(0.000000, 19.676089)">
                        <g id="Group-12" transform="translate(0.000000, 33.461728)">
                            <mask id="mask-2" fill="white">
                                <use xlink:href="#path-1"></use>
                            </mask>
                            <g id="Clip-11"></g>
                            <path d="M80.5548523,10.184881 L81.4053017,10.184881 C83.9401363,10.184881 85.2082054,9.17972543 85.2082054,7.17028346 C85.2082054,5.28730074 83.9749017,4.34602667 81.5087289,4.34602667 L80.5548523,4.34602667 L80.5548523,10.184881 Z M83.8866844,12.2942736 L89.3791881,20.1343131 L86.1042844,20.1343131 L81.0372227,12.6032514 L80.5548523,12.6032514 L80.5548523,20.1343131 L77.8779141,20.1343131 L77.8779141,1.73644642 L81.0141906,1.73644642 C83.3582499,1.73644642 85.0513264,2.19317728 86.0929857,3.10663901 C87.2419832,4.12396247 87.8160474,5.46634272 87.8160474,7.13421432 C87.8160474,8.43748346 87.4557906,9.55779951 86.7365807,10.4942933 C86.0160672,11.4316563 85.0661017,12.0317946 83.8866844,12.2942736 L83.8866844,12.2942736 Z M70.9378647,20.1343131 L73.614803,20.1343131 L73.614803,1.73644642 L70.9378647,1.73644642 L70.9378647,20.1343131 Z M47.6941314,20.1343131 L51.4283733,0.354085926 L57.5179733,14.6531081 L63.8257264,0.354085926 L67.1805906,20.1343131 L64.434556,20.1343131 L62.7227931,9.02936494 L57.4719091,20.9799822 L52.3705165,9.01676247 L50.463198,20.1343131 L47.6941314,20.1343131 Z M40.2143486,13.0565057 L37.5834746,6.80046617 L34.8257067,13.0565057 L40.2143486,13.0565057 Z M41.3059832,15.6656514 L33.7114746,15.6656514 L31.7346252,20.1343131 L28.8508326,20.1343131 L37.6291042,0.58093037 L46.0970943,20.1343131 L43.166803,20.1343131 L41.3059832,15.6656514 Z M22.1411042,1.73644642 L22.1411042,17.5251674 L27.3572227,17.5251674 L27.3572227,20.1343131 L19.4637314,20.1343131 L19.4637314,1.73644642 L22.1411042,1.73644642 Z M11.3638202,13.0565057 L8.7325116,6.80046617 L5.97517827,13.0565057 L11.3638202,13.0565057 Z M12.4550202,15.6656514 L4.8605116,15.6656514 L2.88409679,20.1343131 L-0.00013037037,20.1343131 L8.7785758,0.58093037 L17.2461314,20.1343131 L14.3162746,20.1343131 L12.4550202,15.6656514 Z" id="Fill-10" fill="#3676BB" mask="url(#mask-2)"></path>
                        </g>
                        <path d="M156.56369,49.9800889 L155.45728,50.5367704 C155.282584,50.2034568 155.066603,50.0365827 154.808905,50.0365827 C154.685922,50.0365827 154.580757,50.0752593 154.493408,50.1517432 C154.40606,50.2282272 154.362603,50.3264395 154.362603,50.4459457 C154.362603,50.655842 154.620302,50.8635654 155.136134,51.0695506 C155.845784,51.3576691 156.323808,51.6231901 156.569774,51.8669827 C156.815305,52.1099062 156.938287,52.4371358 156.938287,52.8491062 C156.938287,53.3766716 156.732302,53.8181926 156.319463,54.1736691 C155.919226,54.5108938 155.435117,54.6790716 154.86844,54.6790716 C153.896312,54.6790716 153.208391,54.2314667 152.804243,53.3358222 L153.946287,52.8356346 C154.104905,53.097679 154.225715,53.2649877 154.309152,53.3358222 C154.47168,53.4783605 154.665932,53.5496296 154.891907,53.5496296 C155.343858,53.5496296 155.570268,53.3545086 155.570268,52.9647012 C155.570268,52.7404642 155.395571,52.5301333 155.046613,52.3354469 C154.911897,52.2715654 154.777181,52.2098568 154.642031,52.1498864 C154.507749,52.089916 154.370426,52.0282074 154.231799,51.9643259 C153.84286,51.7844148 153.569517,51.6045037 153.4109,51.4250272 C153.208391,51.1964444 153.107571,50.902242 153.107571,50.5424198 C153.107571,50.0665679 153.280095,49.673284 153.624707,49.3621333 C153.978011,49.0505481 154.40606,48.895842 154.909724,48.895842 C155.651532,48.895842 156.202564,49.2569679 156.56369,49.9800889 L156.56369,49.9800889 Z M150.91648,50.227358 L150.91648,54.521758 L149.578011,54.521758 L149.578011,50.227358 L149.006554,50.227358 L149.006554,49.0475062 L149.578011,49.0475062 L149.578011,47.040237 L150.91648,47.040237 L150.91648,49.0475062 L151.95727,49.0475062 L151.95727,50.227358 L150.91648,50.227358 Z M142.527581,49.0475062 L143.8717,49.0475062 L143.8717,49.5533432 C144.339729,49.1148642 144.867295,48.895842 145.454396,48.895842 C146.127976,48.895842 146.653369,49.0961778 147.030574,49.497284 C147.355631,49.8379852 147.518159,50.3942321 147.518159,51.1660247 L147.518159,54.521758 L146.17404,54.521758 L146.17404,51.4680494 C146.17404,50.9291852 146.094515,50.5567605 145.935897,50.3512099 C145.781191,50.1413136 145.499591,50.0365827 145.091532,50.0365827 C144.646969,50.0365827 144.331907,50.1747753 144.145478,50.4520296 C143.962959,50.7253728 143.8717,51.2025284 143.8717,51.8834963 L143.8717,54.521758 L142.527581,54.521758 L142.527581,49.0475062 Z M135.987769,51.7674667 C135.987769,52.2919901 136.136826,52.7196049 136.43407,53.0490074 C136.739571,53.3827556 137.124599,53.5496296 137.588282,53.5496296 C138.084124,53.5496296 138.483927,53.3884049 138.790297,53.0663901 C139.095364,52.732642 139.247897,52.3089383 139.247897,51.7961481 C139.247897,51.2824889 139.095364,50.8587852 138.790297,50.5254716 C138.483927,50.1995457 138.087601,50.0365827 137.600016,50.0365827 C137.140243,50.0365827 136.755216,50.201284 136.445803,50.5315556 C136.140737,50.8644346 135.987769,51.2768395 135.987769,51.7674667 L135.987769,51.7674667 Z M139.164895,49.0475062 L140.509013,49.0475062 L140.509013,54.521758 L139.164895,54.521758 L139.164895,53.948563 C138.612994,54.4357136 138.020678,54.6790716 137.385774,54.6790716 C136.584431,54.6790716 135.922584,54.4057284 135.398929,53.8586074 C134.879621,53.3001877 134.619749,52.6031407 134.619749,51.7674667 C134.619749,50.9470025 134.879621,50.2629926 135.398929,49.7163062 C135.918673,49.1691852 136.568786,48.895842 137.350139,48.895842 C138.024589,48.895842 138.629073,49.1578864 139.164895,49.6819753 L139.164895,49.0475062 Z M132.506445,50.227358 L132.506445,54.521758 L131.167976,54.521758 L131.167976,50.227358 L130.59652,50.227358 L130.59652,49.0475062 L131.167976,49.0475062 L131.167976,47.040237 L132.506445,47.040237 L132.506445,49.0475062 L133.547236,49.0475062 L133.547236,50.227358 L132.506445,50.227358 Z M127.763571,54.521758 L129.10204,54.521758 L129.10204,45.0281877 L127.763571,45.0281877 L127.763571,54.521758 Z M122.134613,49.0475062 L122.134613,52.1889975 C122.134613,53.0959407 122.513122,53.5496296 123.270574,53.5496296 C124.028026,53.5496296 124.406534,53.0959407 124.406534,52.1889975 L124.406534,49.0475062 L125.745003,49.0475062 L125.745003,52.2172444 C125.745003,52.6557235 125.68764,53.0342321 125.572915,53.3527704 C125.461665,53.6374123 125.269152,53.894242 124.995808,54.1228247 C124.543423,54.4939457 123.96849,54.6790716 123.270574,54.6790716 C122.576569,54.6790716 122.003374,54.4939457 121.551423,54.1228247 C121.273734,53.894242 121.07731,53.6374123 120.962584,53.3527704 C120.851334,53.097679 120.796144,52.7196049 120.796144,52.2172444 L120.796144,49.0475062 L122.134613,49.0475062 Z M118.890999,49.9800889 L117.784154,50.5367704 C117.609458,50.2034568 117.393478,50.0365827 117.135779,50.0365827 C117.012796,50.0365827 116.907631,50.0752593 116.820717,50.1517432 C116.733369,50.2282272 116.689912,50.3264395 116.689912,50.4459457 C116.689912,50.655842 116.947611,50.8635654 117.463008,51.0695506 C118.173092,51.3576691 118.650682,51.6231901 118.896648,51.8669827 C119.142179,52.1099062 119.265596,52.4371358 119.265596,52.8491062 C119.265596,53.3766716 119.059176,53.8181926 118.646771,54.1736691 C118.246534,54.5108938 117.762426,54.6790716 117.195315,54.6790716 C116.223621,54.6790716 115.5357,54.2314667 115.131117,53.3358222 L116.273161,52.8356346 C116.431779,53.097679 116.553023,53.2649877 116.636026,53.3358222 C116.798554,53.4783605 116.992806,53.5496296 117.218781,53.5496296 C117.671166,53.5496296 117.897142,53.3545086 117.897142,52.9647012 C117.897142,52.7404642 117.72288,52.5301333 117.373487,52.3354469 C117.238771,52.2715654 117.104055,52.2098568 116.969339,52.1498864 C116.834623,52.089916 116.6973,52.0282074 116.558673,51.9643259 C116.170169,51.7844148 115.896391,51.6045037 115.737774,51.4250272 C115.5357,51.1964444 115.434445,50.902242 115.434445,50.5424198 C115.434445,50.0665679 115.606969,49.673284 115.952016,49.3621333 C116.304885,49.0505481 116.733369,48.895842 117.237033,48.895842 C117.978406,48.895842 118.529873,49.2569679 118.890999,49.9800889 L118.890999,49.9800889 Z M108.514821,49.0475062 L109.858505,49.0475062 L109.858505,49.5533432 C110.326969,49.1148642 110.8541,48.895842 111.441201,48.895842 C112.115216,48.895842 112.640608,49.0961778 113.017379,49.497284 C113.342436,49.8379852 113.505399,50.3942321 113.505399,51.1660247 L113.505399,54.521758 L112.16128,54.521758 L112.16128,51.4680494 C112.16128,50.9291852 112.081754,50.5567605 111.923137,50.3512099 C111.768431,50.1413136 111.486831,50.0365827 111.078337,50.0365827 C110.634208,50.0365827 110.318712,50.1747753 110.132717,50.4520296 C109.950199,50.7253728 109.858505,51.2025284 109.858505,51.8834963 L109.858505,54.521758 L108.514821,54.521758 L108.514821,49.0475062 Z M101.957626,51.7674667 C101.957626,52.3150222 102.112332,52.7474173 102.421744,53.0663901 C102.738979,53.3884049 103.157033,53.5496296 103.676776,53.5496296 C104.199996,53.5496296 104.618485,53.3901432 104.931808,53.0711704 C105.245132,52.7530667 105.402011,52.3276247 105.402011,51.7961481 C105.402011,51.2633679 105.245132,50.8383605 104.931808,50.5198222 C104.614574,50.1973728 104.196085,50.0365827 103.676776,50.0365827 C103.16529,50.0365827 102.750278,50.1973728 102.433478,50.5198222 C102.116243,50.841837 101.957626,51.2577185 101.957626,51.7674667 L101.957626,51.7674667 Z M100.589171,51.7453037 C100.589171,50.9543901 100.889023,50.281679 101.487858,49.7276049 C102.086692,49.1730963 102.816332,48.895842 103.676776,48.895842 C104.541132,48.895842 105.275117,49.1744 105.877863,49.7332543 C106.472352,50.2912395 106.770031,50.9769877 106.770031,51.7900642 C106.770031,52.610963 106.470613,53.2984494 105.871779,53.852958 C105.268599,54.4039901 104.529399,54.6790716 103.652875,54.6790716 C102.784608,54.6790716 102.056707,54.3979062 101.469606,53.8360099 C100.882939,53.2815012 100.589171,52.5844543 100.589171,51.7453037 L100.589171,51.7453037 Z M99.0412405,46.307121 L99.0412405,47.8554864 C98.2398973,47.222321 97.4107417,46.9059556 96.5542084,46.9059556 C95.6107615,46.9059556 94.8155022,47.2262321 94.1688652,47.8672198 C93.5187516,48.5038617 93.1932602,49.283042 93.1932602,50.2051951 C93.1932602,51.1156148 93.5187516,51.8839309 94.1688652,52.5092741 C94.8194133,53.1354864 95.6164109,53.4479407 96.5602923,53.4479407 C97.0478775,53.4479407 97.4624553,53.3736296 97.8035911,53.2232691 C97.9939319,53.1485235 98.1912257,53.0472691 98.3954726,52.9199407 C98.5997195,52.7926123 98.8148306,52.6387753 99.0412405,52.4592988 L99.0412405,54.0415605 C98.2477195,54.4665679 97.4150874,54.6790716 96.5424751,54.6790716 C95.2296454,54.6790716 94.1093294,54.246242 93.1815269,53.3805827 C92.2576356,52.5075358 91.7952553,51.4550123 91.7952553,50.2221432 C91.7952553,49.1166025 92.1820207,48.1310025 92.9555516,47.2657778 C93.9072553,46.2049975 95.1388207,45.6748247 96.6498133,45.6748247 C97.4741886,45.6748247 98.2711862,45.8855901 99.0412405,46.307121 L99.0412405,46.307121 Z M155.16047,41.0549333 C155.16047,40.5234568 155.00924,40.098884 154.708085,39.7807802 C154.402584,39.4557235 154.012342,39.2927605 153.536055,39.2927605 C153.02848,39.2927605 152.627808,39.4704988 152.33491,39.8259753 C152.068954,40.144079 151.935976,40.5556148 151.935976,41.0605827 C151.935976,41.558163 152.068954,41.9662222 152.33491,42.2838914 C152.624332,42.6319802 153.024134,42.8058074 153.536055,42.8058074 C154.047542,42.8058074 154.452559,42.6298074 154.749803,42.278242 C155.023147,41.9605728 155.16047,41.552079 155.16047,41.0549333 L155.16047,41.0549333 Z M156.445487,43.6488691 C156.445487,43.9070025 156.436361,44.1351506 156.41811,44.3315753 C156.400292,44.5284346 156.375522,44.7018272 156.343799,44.8513185 C156.248628,45.2637235 156.062633,45.6178963 155.784944,45.9142716 C155.26129,46.4835556 154.541645,46.7681975 153.625142,46.7681975 C152.852045,46.7681975 152.215403,46.5704691 151.716085,46.1750123 C151.200253,45.7691259 150.903008,45.2076642 150.823482,44.4919309 L152.168036,44.4919309 C152.219749,44.7617975 152.304924,44.969521 152.423996,45.1159704 C152.70125,45.4566716 153.105833,45.6270222 153.63731,45.6270222 C154.616826,45.6270222 155.106149,45.0616494 155.106149,43.9300346 L155.106149,43.1651951 C154.575107,43.6788543 153.962801,43.9352494 153.268361,43.9352494 C152.479186,43.9352494 151.832549,43.6658173 151.32932,43.1265185 C150.821744,42.5793975 150.567957,41.8953877 150.567957,41.0744889 C150.567957,40.2766222 150.803492,39.5978272 151.275433,39.039842 C151.783443,38.4479605 152.453547,38.1520198 153.286613,38.1520198 C154.016253,38.1520198 154.62291,38.4084148 155.106149,38.9220741 L155.106149,38.303684 L156.445487,38.303684 L156.445487,43.6488691 Z M144.161557,38.303684 L145.505675,38.303684 L145.505675,38.809521 C145.973705,38.371042 146.50127,38.1520198 147.087937,38.1520198 C147.761952,38.1520198 148.287344,38.3523556 148.664115,38.7534617 C148.989171,39.094163 149.1517,39.6504099 149.1517,40.422637 L149.1517,43.7783704 L147.808016,43.7783704 L147.808016,40.7242272 C147.808016,40.185363 147.72849,39.8129383 147.569873,39.6073877 C147.415166,39.3974914 147.133566,39.2927605 146.725073,39.2927605 C146.280944,39.2927605 145.965448,39.4313877 145.779453,39.7082074 C145.596934,39.9815506 145.505675,40.4587062 145.505675,41.1396741 L145.505675,43.7783704 L144.161557,43.7783704 L144.161557,38.303684 Z M141.127838,43.7783704 L142.465873,43.7783704 L142.465873,38.303684 L141.127838,38.303684 L141.127838,43.7783704 Z M140.925329,36.0274173 C140.925329,35.8062222 141.010505,35.6150123 141.18129,35.4537877 C141.351206,35.292563 141.555887,35.2121679 141.793596,35.2121679 C142.035216,35.2121679 142.241636,35.292563 142.412421,35.4537877 C142.582771,35.6115358 142.667947,35.804484 142.667947,36.0326321 C142.667947,36.2616494 142.582771,36.4563358 142.412421,36.6171259 C142.245981,36.7787852 142.0413,36.8591802 141.799245,36.8591802 C141.55806,36.8591802 141.351206,36.7787852 141.18129,36.6171259 C141.010505,36.4563358 140.925329,36.2599111 140.925329,36.0274173 L140.925329,36.0274173 Z M136.386268,38.303684 L137.724737,38.303684 L137.724737,38.7925728 C137.970702,38.5487802 138.188855,38.3827753 138.378761,38.2923852 C138.573448,38.1989531 138.803334,38.1520198 139.06929,38.1520198 C139.422159,38.1520198 139.790673,38.2606617 140.175265,38.4775111 L139.562959,39.6356346 C139.308737,39.4635457 139.061468,39.3770667 138.818979,39.3770667 C138.089339,39.3770667 137.724737,39.8981136 137.724737,40.9397728 L137.724737,43.7783704 L136.386268,43.7783704 L136.386268,38.303684 Z M133.548974,40.3044346 C133.36211,39.6299852 132.912332,39.2927605 132.198771,39.2927605 C132.036243,39.2927605 131.88371,39.3162272 131.740737,39.3631605 C131.598199,39.4100938 131.468263,39.4774519 131.350929,39.5652346 C131.234031,39.6534519 131.133645,39.7590519 131.050643,39.8833383 C130.96764,40.0067556 130.903759,40.147121 130.860737,40.3044346 L133.548974,40.3044346 Z M134.923078,41.3387062 L130.770781,41.3387062 C130.80685,41.7880494 130.961122,42.1465679 131.235334,42.4120889 C131.508678,42.6741333 131.859374,42.8058074 132.288292,42.8058074 C132.621171,42.8058074 132.896687,42.7306272 133.11484,42.5811358 C133.328648,42.4312099 133.572875,42.153521 133.846653,41.7493728 L134.976529,42.3451654 C134.802268,42.6258963 134.618011,42.8666469 134.423759,43.0674173 C134.229073,43.2677531 134.020915,43.4324543 133.798416,43.561521 C133.576786,43.6910222 133.336905,43.785758 133.079206,43.8457284 C132.821073,43.9052642 132.541645,43.9352494 132.240055,43.9352494 C131.3757,43.9352494 130.681695,43.6732049 130.15804,43.1486815 C129.634821,42.6198123 129.373211,41.9197235 129.373211,41.046242 C129.373211,40.1805827 129.626999,39.4800593 130.135008,38.944237 C130.64606,38.416237 131.324421,38.1520198 132.168786,38.1520198 C133.021408,38.1520198 133.695858,38.4084148 134.1917,38.9220741 C134.683196,39.4318222 134.929161,40.1379951 134.929161,41.0410272 L134.923078,41.3387062 Z M126.80926,40.3044346 C126.622831,39.6299852 126.172618,39.2927605 125.458623,39.2927605 C125.296095,39.2927605 125.143561,39.3162272 125.001023,39.3631605 C124.85805,39.4100938 124.728115,39.4774519 124.611216,39.5652346 C124.494317,39.6534519 124.393932,39.7590519 124.310929,39.8833383 C124.227492,40.0067556 124.163611,40.147121 124.120589,40.3044346 L126.80926,40.3044346 Z M128.183364,41.3387062 L124.031068,41.3387062 C124.067137,41.7880494 124.221408,42.1465679 124.495186,42.4120889 C124.768529,42.6741333 125.11966,42.8058074 125.548144,42.8058074 C125.881458,42.8058074 126.156974,42.7306272 126.374692,42.5811358 C126.588934,42.4312099 126.833161,42.153521 127.106505,41.7493728 L128.236816,42.3451654 C128.06212,42.6258963 127.877863,42.8666469 127.683611,43.0674173 C127.489359,43.2677531 127.280766,43.4324543 127.058702,43.561521 C126.837073,43.6910222 126.596757,43.785758 126.339492,43.8457284 C126.081359,43.9052642 125.801497,43.9352494 125.500776,43.9352494 C124.635986,43.9352494 123.941981,43.6732049 123.418761,43.1486815 C122.894673,42.6198123 122.633063,41.9197235 122.633063,41.046242 C122.633063,40.1805827 122.88685,39.4800593 123.39486,38.944237 C123.906347,38.416237 124.584707,38.1520198 125.429073,38.1520198 C126.281695,38.1520198 126.956144,38.4084148 127.451552,38.9220741 C127.943482,39.4318222 128.189448,40.1379951 128.189448,41.0410272 L128.183364,41.3387062 Z M116.226663,38.303684 L117.570781,38.303684 L117.570781,38.809521 C118.039245,38.371042 118.566376,38.1520198 119.153478,38.1520198 C119.827492,38.1520198 120.352885,38.3523556 120.729655,38.7534617 C121.055147,39.094163 121.21724,39.6504099 121.21724,40.422637 L121.21724,43.7783704 L119.873122,43.7783704 L119.873122,40.7242272 C119.873122,40.185363 119.793596,39.8129383 119.634979,39.6073877 C119.480707,39.3974914 119.199107,39.2927605 118.790613,39.2927605 C118.346485,39.2927605 118.030989,39.4313877 117.844559,39.7082074 C117.66204,39.9815506 117.570781,40.4587062 117.570781,41.1396741 L117.570781,43.7783704 L116.226663,43.7783704 L116.226663,38.303684 Z M113.192944,43.7783704 L114.531413,43.7783704 L114.531413,38.303684 L113.192944,38.303684 L113.192944,43.7783704 Z M112.990436,36.0274173 C112.990436,35.8062222 113.076045,35.6150123 113.246396,35.4537877 C113.416747,35.292563 113.621428,35.2121679 113.859137,35.2121679 C114.100757,35.2121679 114.307176,35.292563 114.477961,35.4537877 C114.647878,35.6115358 114.733487,35.804484 114.733487,36.0326321 C114.733487,36.2616494 114.647878,36.4563358 114.477961,36.6171259 C114.311087,36.7787852 114.10684,36.8591802 113.864786,36.8591802 C113.623166,36.8591802 113.416747,36.7787852 113.246396,36.6171259 C113.076045,36.4563358 112.990436,36.2599111 112.990436,36.0274173 L112.990436,36.0274173 Z M110.218761,41.0549333 C110.218761,40.5234568 110.067532,40.098884 109.766376,39.7807802 C109.46131,39.4557235 109.070633,39.2927605 108.594781,39.2927605 C108.086771,39.2927605 107.686534,39.4704988 107.393201,39.8259753 C107.127245,40.144079 106.994268,40.5556148 106.994268,41.0605827 C106.994268,41.558163 107.127245,41.9662222 107.393201,42.2838914 C107.682623,42.6319802 108.08286,42.8058074 108.594781,42.8058074 C109.106268,42.8058074 109.51085,42.6298074 109.808095,42.278242 C110.081873,41.9605728 110.218761,41.552079 110.218761,41.0549333 L110.218761,41.0549333 Z M111.503779,43.6488691 C111.503779,43.9070025 111.494653,44.1351506 111.476836,44.3315753 C111.459018,44.5284346 111.433813,44.7018272 111.402524,44.8513185 C111.307354,45.2637235 111.120924,45.6178963 110.843236,45.9142716 C110.319581,46.4835556 109.599937,46.7681975 108.683868,46.7681975 C107.910337,46.7681975 107.274129,46.5704691 106.774376,46.1750123 C106.258979,45.7691259 105.9613,45.2076642 105.882208,44.4919309 L107.226327,44.4919309 C107.27804,44.7617975 107.363216,44.969521 107.482287,45.1159704 C107.759542,45.4566716 108.164124,45.6270222 108.695601,45.6270222 C109.675117,45.6270222 110.164875,45.0616494 110.164875,43.9300346 L110.164875,43.1651951 C109.633399,43.6788543 109.021092,43.9352494 108.326653,43.9352494 C107.537912,43.9352494 106.891275,43.6658173 106.388045,43.1265185 C105.880036,42.5793975 105.626248,41.8953877 105.626248,41.0744889 C105.626248,40.2766222 105.862218,39.5978272 106.334159,39.039842 C106.841734,38.4479605 107.511838,38.1520198 108.344905,38.1520198 C109.074544,38.1520198 109.681201,38.4084148 110.164875,38.9220741 L110.164875,38.303684 L111.503779,38.303684 L111.503779,43.6488691 Z M99.2198479,38.303684 L100.563966,38.303684 L100.563966,38.809521 C101.031996,38.371042 101.559561,38.1520198 102.146228,38.1520198 C102.820678,38.1520198 103.34607,38.3523556 103.722406,38.7534617 C104.047897,39.094163 104.210426,39.6504099 104.210426,40.422637 L104.210426,43.7783704 L102.866307,43.7783704 L102.866307,40.7242272 C102.866307,40.185363 102.786781,39.8129383 102.628164,39.6073877 C102.473458,39.3974914 102.191858,39.2927605 101.783364,39.2927605 C101.339236,39.2927605 101.023739,39.4313877 100.837744,39.7082074 C100.655226,39.9815506 100.563966,40.4587062 100.563966,41.1396741 L100.563966,43.7783704 L99.2198479,43.7783704 L99.2198479,38.303684 Z M97.6554035,36.3307457 L93.9728751,36.3307457 L93.9728751,38.416237 L97.5480652,38.416237 L97.5480652,39.6473679 L93.9728751,39.6473679 L93.9728751,42.5472395 L97.6554035,42.5472395 L97.6554035,43.7783704 L92.587038,43.7783704 L92.587038,35.1000494 L97.6554035,35.1000494 L97.6554035,36.3307457 Z" id="Fill-13" fill="#002E41"></path>
                        <path d="M152.788425,21.6506074 L156.983309,21.6506074 L156.983309,4.68855309 L152.788425,4.68855309 L152.788425,21.6506074 Z M136.427378,17.7082074 L140.622262,17.7082074 L140.622262,4.68855309 L136.427378,4.68855309 L136.427378,17.7082074 Z M149.413136,18.4400198 C149.413136,20.5807012 148.008178,21.6506074 145.198696,21.6506074 L136.426943,21.6506074 L136.426943,18.4400198 L142.433975,18.4400198 C143.501709,18.4400198 144.156602,18.4004741 144.397788,18.3205136 C144.906232,18.1514667 145.160889,17.7082074 145.160889,16.9916049 L145.160889,4.68855309 L149.413136,4.68855309 L149.413136,18.4400198 Z M139.173412,3.49392593 L134.882923,3.49392593 L134.882923,2.43358025 L135.74076,2.43358025 L135.74076,1.83604938 C135.74076,1.42842469 135.921541,1.0898963 136.28397,0.820898765 C136.6464,0.552335802 137.087921,0.418054321 137.609402,0.418054321 L139.173412,0.418054321 L139.173412,1.44841481 L138.048316,1.44841481 C137.399941,1.44841481 137.075753,1.61746173 137.075753,1.95599012 L137.075753,2.43358025 L139.173412,2.43358025 L139.173412,3.49392593 Z M128.780721,17.6451951 L128.780721,16.0246914 C128.780721,15.5049481 128.418291,15.244642 127.693867,15.244642 L124.528474,15.244642 L124.528474,18.4400198 L127.693867,18.4400198 C128.418291,18.4400198 128.780721,18.1749333 128.780721,17.6451951 L128.780721,17.6451951 Z M135.515654,19.2313679 C135.515654,20.8440494 131.952632,21.6506074 129.715042,21.6506074 L116.559151,21.6506074 L116.559151,18.4400198 L120.218864,18.4400198 L120.218864,12.0492642 L129.715042,12.0492642 C131.952632,12.0492642 133.07121,12.851042 133.07121,14.4532938 L135.515654,19.2313679 Z M116.138272,24.9802667 C116.138272,25.4378667 115.934459,25.8263704 115.528138,26.1444741 C115.120948,26.4634469 114.625106,26.6224988 114.040612,26.6224988 C113.468286,26.6224988 112.982005,26.4608395 112.581768,26.137521 C112.181531,25.8137679 111.981195,25.4283062 111.981195,24.9802667 C111.981195,24.5322272 112.181531,24.1463309 112.581768,23.8230123 C112.982005,23.4992593 113.468286,23.3376 114.040612,23.3376 C114.625106,23.3376 115.120948,23.4970864 115.528138,23.8156247 C115.934459,24.1337284 116.138272,24.5222321 116.138272,24.9802667 L116.138272,24.9802667 Z M111.370627,24.9802667 C111.370627,25.4283062 111.167684,25.8137679 110.760928,26.137521 C110.353304,26.4608395 109.864415,26.6224988 109.292523,26.6224988 C108.720632,26.6224988 108.230874,26.4608395 107.824119,26.137521 C107.417363,25.8137679 107.213985,25.4283062 107.213985,24.9802667 C107.213985,24.5322272 107.417363,24.1463309 107.824119,23.8230123 C108.230874,23.4992593 108.720632,23.3376 109.292523,23.3376 C109.864415,23.3376 110.353304,23.4992593 110.760928,23.8230123 C111.167684,24.1463309 111.370627,24.5322272 111.370627,24.9802667 L111.370627,24.9802667 Z M116.424217,21.6506074 L106.166894,21.6506074 L106.166894,18.4400198 L109.69276,18.4400198 L109.69276,12.0644741 L113.868958,12.0644741 L113.868958,18.4400198 L116.424217,18.4400198 L116.424217,21.6506074 Z M106.031526,21.6506074 L103.514509,21.6506074 L103.514509,25.1892938 C103.514509,26.1444741 103.183802,26.9162667 102.522825,27.5033679 C101.82404,28.1008988 100.870163,28.3994469 99.6624988,28.3994469 L93.8084346,28.3994469 L93.8084346,25.0098173 L97.4314272,25.0098173 C98.6773333,25.0002568 99.3005037,24.4179358 99.3005037,23.2628543 L99.3005037,12.0492642 L103.514509,12.0492642 L103.514509,18.4400198 L106.031526,18.4400198 L106.031526,21.6506074 Z" id="Fill-15" fill="#3777BC"></path>
                        <path d="M12.6697402,19.9927743 C12.4841798,19.8280731 12.2634193,19.7455052 12.0065896,19.7455052 C11.74976,19.7455052 11.5281304,19.8280731 11.3430044,19.9927743 C11.157444,20.1579101 11.064881,20.3560731 11.064881,20.5881323 C11.064881,20.8201916 11.157444,21.0200928 11.3430044,21.1874015 C11.5281304,21.3551447 11.74976,21.4385817 12.0065896,21.4385817 C12.2634193,21.4385817 12.4841798,21.3551447 12.6697402,21.1874015 C12.8553007,21.0200928 12.9482983,20.8201916 12.9482983,20.5881323 C12.9482983,20.3560731 12.8553007,20.1579101 12.6697402,19.9927743 L12.6697402,19.9927743 Z M10.3617501,19.9927743 C10.1761896,19.8280731 9.95542914,19.7455052 9.69859951,19.7455052 C9.44176988,19.7455052 9.22014025,19.8280731 9.03544889,19.9927743 C8.84945383,20.1579101 8.75689086,20.3560731 8.75689086,20.5881323 C8.75689086,20.8201916 8.84945383,21.0200928 9.03544889,21.1874015 C9.22014025,21.3551447 9.44176988,21.4385817 9.69859951,21.4385817 C9.95542914,21.4385817 10.1761896,21.3551447 10.3617501,21.1874015 C10.5477452,21.0200928 10.6407427,20.8201916 10.6407427,20.5881323 C10.6407427,20.3560731 10.5477452,20.1579101 10.3617501,19.9927743 L10.3617501,19.9927743 Z M83.541681,27.8167348 L85.4250983,27.8167348 L85.4250983,19.0323793 L83.541681,19.0323793 L83.541681,27.8167348 Z M82.0350341,26.154078 C82.0350341,27.2626607 81.4040415,27.8167348 80.1420563,27.8167348 L74.4587028,27.8167348 L74.4587028,26.154078 L79.3033402,26.154078 C79.8513304,26.154078 80.1251081,25.9042015 80.1251081,25.4040138 L80.1251081,19.0323793 L82.0350341,19.0323793 L82.0350341,26.154078 Z M71.4615625,25.7364583 L71.4615625,24.8781867 C71.4615625,24.6152731 71.2994686,24.4840336 70.9731081,24.4840336 L70.1087526,24.4840336 L70.1087526,26.154078 L70.9731081,26.154078 C71.2994686,26.154078 71.4615625,26.0145817 71.4615625,25.7364583 L71.4615625,25.7364583 Z M68.1566736,26.154078 L68.1566736,24.4840336 L67.3001402,24.4840336 C66.9694341,24.4840336 66.8038637,24.6152731 66.8038637,24.8781867 L66.8038637,25.7364583 C66.8038637,26.0145817 66.9694341,26.154078 67.3001402,26.154078 L68.1566736,26.154078 Z M74.44096,27.8167348 L59.1240048,27.8167348 L59.1240048,26.154078 L64.9030637,26.154078 L64.9030637,24.0816237 C64.9030637,23.2520336 65.4049896,22.8370212 66.4101452,22.8370212 L68.1566736,22.8370212 L68.1566736,22.3342262 L70.1087526,22.3342262 L70.1087526,22.8370212 L71.8631032,22.8370212 C72.863044,22.8370212 73.3623625,23.2520336 73.3623625,24.0816237 L73.3623625,26.154078 L74.44096,26.154078 L74.44096,27.8167348 Z M57.8813156,21.305604 C57.8813156,21.5380978 57.7887526,21.7375644 57.6027575,21.9048731 C57.417197,22.0726163 57.1964365,22.1564879 56.9396069,22.1564879 C56.6827773,22.1564879 56.4611477,22.0726163 56.2764563,21.9048731 C56.0904612,21.7375644 55.9978983,21.5380978 55.9978983,21.305604 C55.9978983,21.0735447 56.0904612,20.8753817 56.2764563,20.7102459 C56.4611477,20.5455447 56.6827773,20.4629768 56.9396069,20.4629768 C57.1964365,20.4629768 57.417197,20.5455447 57.6027575,20.7102459 C57.7887526,20.8753817 57.8813156,21.0735447 57.8813156,21.305604 L57.8813156,21.305604 Z M59.1315674,27.8167348 L54.4117254,27.8167348 L54.4117254,26.154078 L56.1095822,26.154078 L56.1095822,22.8522311 L57.9838736,22.8522311 L57.9838736,26.154078 L59.1315674,26.154078 L59.1315674,27.8167348 Z M54.4747378,27.8167348 L47.9497007,27.8167348 L47.9497007,26.154078 L51.4175526,26.154078 L51.4175526,25.2414854 C51.4175526,24.7421669 51.1437748,24.4918558 50.5957847,24.4918558 L47.9497007,24.4918558 L47.9497007,22.8444089 L51.8625501,22.8444089 C52.8611872,22.8444089 53.3605057,23.2598558 53.3605057,24.0894459 L53.3605057,26.154078 L54.4747378,26.154078 L54.4747378,27.8167348 Z M46.4265402,26.154078 C46.4265402,27.2626607 45.7903328,27.8167348 44.517918,27.8167348 L23.5173492,27.8167348 L23.5173492,26.154078 L37.3679723,26.154078 L37.3679723,22.8522311 L39.2513896,22.8522311 L39.2513896,26.154078 L40.9379477,26.154078 L40.9379477,22.8522311 L42.8213649,22.8522311 L42.8213649,26.154078 L43.7117946,26.154078 C44.271518,26.154078 44.5518143,25.9020286 44.5518143,25.3966262 L44.5518143,22.8522311 L46.4265402,22.8522311 L46.4265402,26.154078 Z M23.3853156,29.5411002 C23.3853156,29.7779398 23.2940563,29.9787101 23.1111032,30.1438459 C22.9290193,30.3085472 22.7065205,30.3915496 22.444476,30.3915496 C22.1863427,30.3915496 21.9681896,30.3072435 21.7891477,30.1403694 C21.608802,29.9726262 21.5197156,29.7727249 21.5197156,29.5411002 C21.5197156,29.3086064 21.608802,29.1091398 21.7891477,28.9413965 C21.9681896,28.7740879 22.1863427,28.6902163 22.444476,28.6902163 C22.7065205,28.6902163 22.9290193,28.7723496 23.1111032,28.93792 C23.2940563,29.1026212 23.3853156,29.3038262 23.3853156,29.5411002 L23.3853156,29.5411002 Z M21.2455032,29.5411002 C21.2455032,29.7727249 21.1533748,29.9726262 20.9717254,30.1403694 C20.7887723,30.3072435 20.568881,30.3915496 20.3116168,30.3915496 C20.0552217,30.3915496 19.8353304,30.3072435 19.6519427,30.1403694 C19.4698588,29.9726262 19.3781649,29.7727249 19.3781649,29.5411002 C19.3781649,29.3086064 19.4698588,29.1091398 19.6519427,28.9413965 C19.8353304,28.7740879 20.0552217,28.6902163 20.3116168,28.6902163 C20.568881,28.6902163 20.7887723,28.7740879 20.9717254,28.9413965 C21.1533748,29.1091398 21.2455032,29.3086064 21.2455032,29.5411002 L21.2455032,29.5411002 Z M23.5139477,27.8167348 L18.7945402,27.8167348 L18.7945402,26.154078 L20.4919625,26.154078 L20.4919625,22.8522311 L22.3666884,22.8522311 L22.3666884,26.154078 L23.5139477,26.154078 L23.5139477,27.8167348 Z M11.7249896,26.154078 L11.7249896,24.4605669 L10.2943921,24.4605669 C9.96933531,24.4605669 9.80680691,24.5948484 9.80680691,24.8625422 L9.80680691,25.7438459 C9.80680691,26.0176237 9.96933531,26.154078 10.2943921,26.154078 L11.7249896,26.154078 Z M18.7808711,27.8167348 L9.42134519,27.8167348 C8.42270815,27.8167348 7.92338963,27.4017225 7.92338963,26.5716978 L7.92338963,24.074236 C7.92338963,23.2494262 8.42270815,22.8370212 9.42134519,22.8370212 L11.7249896,22.8370212 L11.7249896,22.3029373 L13.6848909,22.3029373 L13.6848909,26.154078 L18.7808711,26.154078 L18.7808711,27.8167348 Z M85.4320514,13.6515595 C85.4320514,14.7605768 84.8623328,15.3142163 83.7224612,15.3142163 L82.2553279,15.3142163 L82.2553279,13.6515595 L82.9645748,13.6515595 C83.4595477,13.6515595 83.7072514,13.4021175 83.7072514,12.9019299 L83.7072514,6.53029531 L85.4320514,6.53029531 L85.4320514,13.6515595 Z M76.0136612,13.2730509 L77.7149946,13.2730509 L77.7149946,6.53029531 L76.0136612,6.53029531 L76.0136612,13.2730509 Z M82.2536217,15.3142163 L76.0136612,15.3142163 L76.0136612,13.6515595 L79.5545205,13.6515595 L79.5545205,6.53029531 L81.2788859,6.53029531 L81.2788859,13.6515595 L82.2536217,13.6515595 L82.2536217,15.3142163 Z M72.9282291,15.3142163 L53.9803783,15.3142163 L53.9803783,13.6515595 L66.4709847,13.6515595 L66.4709847,10.3501472 L68.172318,10.3501472 L68.172318,13.6515595 L69.695044,13.6515595 L69.695044,10.3501472 L71.3963773,10.3501472 L71.3963773,13.6515595 L72.2003279,13.6515595 C72.7057304,13.6515595 72.9590835,13.3995101 72.9590835,12.8941077 L72.9590835,10.3501472 L74.65216,10.3501472 C74.2688711,13.6595266 73.6942275,15.3142163 72.9282291,15.3142163 Z M53.9754193,8.83437432 C53.9754193,9.0716484 53.8932859,9.27285333 53.7277156,9.43755457 C53.5634489,9.60269037 53.3626785,9.6848237 53.125839,9.6848237 C52.8929106,9.6848237 52.6956168,9.6009521 52.5339575,9.43364346 C52.3709946,9.26633481 52.2905995,9.06643358 52.2905995,8.83437432 C52.2905995,8.60274963 52.3709946,8.4028484 52.5339575,8.23553975 C52.6956168,8.06779654 52.8929106,7.98392494 53.125839,7.98392494 C53.3626785,7.98392494 53.5634489,8.06649284 53.7277156,8.23162864 C53.8932859,8.39632988 53.9754193,8.59753481 53.9754193,8.83437432 L53.9754193,8.83437432 Z M52.0433304,8.83437432 C52.0433304,9.06643358 51.9603279,9.26633481 51.7956267,9.43364346 C51.6304909,9.6009521 51.4318933,9.6848237 51.1998341,9.6848237 C50.9677748,9.6848237 50.7691773,9.6009521 50.6040415,9.43364346 C50.4397748,9.26633481 50.3567723,9.06643358 50.3567723,8.83437432 C50.3567723,8.60274963 50.4397748,8.4028484 50.6040415,8.23553975 C50.7691773,8.06779654 50.9677748,7.98392494 51.1998341,7.98392494 C51.4318933,7.98392494 51.6304909,8.06779654 51.7956267,8.23553975 C51.9603279,8.4028484 52.0433304,8.60274963 52.0433304,8.83437432 L52.0433304,8.83437432 Z M53.9754193,15.3142163 L46.08336,15.3142163 L46.08336,13.6515595 L51.2306884,13.6515595 L51.2306884,10.3501472 L52.9237649,10.3501472 L52.9237649,13.6515595 L53.9754193,13.6515595 L53.9754193,15.3142163 Z M42.5858291,8.81916444 C42.5858291,9.05078914 42.5028267,9.25069037 42.33856,9.41799901 C42.1734242,9.58574222 41.9748267,9.66961383 41.7427674,9.66961383 C41.5107081,9.66961383 41.3121106,9.58574222 41.1469748,9.41799901 C40.9822736,9.25069037 40.8992711,9.05078914 40.8992711,8.81916444 C40.8992711,8.58710519 40.9822736,8.38720395 41.1469748,8.21989531 C41.3121106,8.0521521 41.5107081,7.96871506 41.7427674,7.96871506 C41.9748267,7.96871506 42.1734242,8.0521521 42.33856,8.21989531 C42.5028267,8.38720395 42.5858291,8.58710519 42.5858291,8.81916444 L42.5858291,8.81916444 Z M41.63456,7.28818173 C41.63456,7.5254558 41.5519921,7.72622617 41.3868563,7.89092741 C41.2217205,8.05649778 41.0205156,8.13863111 40.783676,8.13863111 C40.5520514,8.13863111 40.3534538,8.05475951 40.1878835,7.8870163 C40.0236168,7.71970765 39.9406143,7.51980642 39.9406143,7.28818173 C39.9406143,7.05612247 40.0236168,6.85795951 40.1878835,6.6928237 C40.3534538,6.5276879 40.5520514,6.44512 40.783676,6.44512 C41.0205156,6.44512 41.2217205,6.52594963 41.3868563,6.68891259 C41.5519921,6.85100642 41.63456,7.05134222 41.63456,7.28818173 L41.63456,7.28818173 Z M40.6602588,8.81916444 C40.6602588,9.05078914 40.5763872,9.25069037 40.408644,9.41799901 C40.2409007,9.58574222 40.0414341,9.66961383 39.8093748,9.66961383 C39.5773156,9.66961383 39.378718,9.58574222 39.2144514,9.41799901 C39.0493156,9.25069037 38.9671822,9.05078914 38.9671822,8.81916444 C38.9671822,8.58710519 39.0493156,8.38720395 39.2144514,8.21989531 C39.378718,8.0521521 39.5773156,7.96871506 39.8093748,7.96871506 C40.0414341,7.96871506 40.2409007,8.0521521 40.408644,8.21989531 C40.5763872,8.38720395 40.6602588,8.58710519 40.6602588,8.81916444 L40.6602588,8.81916444 Z M46.0884464,15.3142163 L27.9394989,15.3142163 L27.9394989,13.6515595 L36.809118,13.6515595 L36.809118,10.3345027 L38.5104514,10.3345027 L38.5104514,13.6515595 L40.0414341,13.6515595 L40.0414341,10.3345027 L41.7345106,10.3345027 L41.7345106,13.6515595 L43.2972168,13.6515595 L43.2972168,10.3345027 L44.9985501,10.3345027 L44.9985501,13.6515595 L46.0884464,13.6515595 L46.0884464,15.3142163 Z M27.9326341,15.3142163 L26.6189353,15.3142163 C25.4842785,15.3142163 24.917602,14.765357 24.917602,13.667204 L24.917602,6.53029531 L26.6189353,6.53029531 L26.6189353,12.9019299 C26.6189353,13.4021175 26.9044464,13.6515595 27.4767723,13.6515595 L27.9326341,13.6515595 L27.9326341,15.3142163 Z M23.547844,17.1467891 C23.547844,17.641762 23.4144316,18.0411299 23.1454341,18.3453274 C22.8625304,18.6547398 22.4757649,18.8090114 21.9864415,18.8090114 L19.612397,18.8090114 L19.612397,17.0537916 L21.0812365,17.0537916 C21.5870736,17.0490114 21.8395575,16.7469867 21.8395575,16.1494558 L21.8395575,10.3423249 L23.547844,10.3423249 L23.547844,17.1467891 Z M16.9684859,15.3142163 L18.6698193,15.3142163 L18.6698193,6.53029531 L16.9684859,6.53029531 L16.9684859,15.3142163 Z M13.0860563,8.83437432 C13.0860563,9.0716484 13.003923,9.27285333 12.8387872,9.43755457 C12.6745205,9.60269037 12.4733156,9.6848237 12.236476,9.6848237 C12.0035477,9.6848237 11.8066884,9.6009521 11.6445946,9.43364346 C11.4820662,9.26633481 11.4012365,9.06643358 11.4012365,8.83437432 C11.4012365,8.60274963 11.4820662,8.4028484 11.6445946,8.23553975 C11.8066884,8.06779654 12.0035477,7.98392494 12.236476,7.98392494 C12.4733156,7.98392494 12.6745205,8.06649284 12.8387872,8.23162864 C13.003923,8.39632988 13.0860563,8.59753481 13.0860563,8.83437432 L13.0860563,8.83437432 Z M11.1539674,8.83437432 C11.1539674,9.06643358 11.0709649,9.26633481 10.9062637,9.43364346 C10.7411279,9.6009521 10.5425304,9.6848237 10.3104711,9.6848237 C10.0788464,9.6848237 9.88024889,9.6009521 9.71467852,9.43364346 C9.55041185,9.26633481 9.46740938,9.06643358 9.46740938,8.83437432 C9.46740938,8.60274963 9.55041185,8.4028484 9.71467852,8.23553975 C9.88024889,8.06779654 10.0788464,7.98392494 10.3104711,7.98392494 C10.5425304,7.98392494 10.7411279,8.06779654 10.9062637,8.23553975 C11.0709649,8.4028484 11.1539674,8.60274963 11.1539674,8.83437432 L11.1539674,8.83437432 Z M15.5843872,13.6363496 C15.5843872,14.7549274 15.0094538,15.3142163 13.8595872,15.3142163 L8.48572049,15.3142163 C7.33672296,15.3142163 6.76178963,14.7549274 6.76178963,13.6363496 L6.76178963,10.3501472 L8.46312296,10.3501472 L8.46312296,12.8941077 C8.46312296,13.2704435 8.56307358,13.5020681 8.76427852,13.5902854 C8.85684148,13.6311348 9.11975506,13.6515595 9.55301926,13.6515595 L12.8240119,13.6515595 C13.2359822,13.6515595 13.4880316,13.6311348 13.5810291,13.5902854 C13.7878835,13.4972879 13.8904415,13.2652286 13.8904415,12.8941077 L13.8904415,10.3501472 L15.5843872,10.3501472 L15.5843872,13.6363496 Z" id="Fill-17" fill="#221E1F"></path>
                    </g>
                </g>
            </g>
        </g>
    </g>
</svg>